# xmcd
#
# Track frame offsets:
#  150
#  16296
#  30996
#  50225
#  62570
#  75374
#  91254
#  108863
#  119954
#  132160
#  146526
#  157692
#  173543
#  183160
#  208286
#  225990
#  237618
#  246995
#
# Disc length: 3603 seconds
#
# Revision: 0
# Processed by: cddbd v1.4PL0 Copyright (c) Steve Scherf et al.
# Submitted via: AltoMP3_Maker 3.0
#
DISCID=e70e1112
DTITLE=Rod Stewart - Early recordings
DYEAR=1900
DGENRE=
TTITLE0=I just gor some
TTITLE1=Bright light, big city
TTITLE2=Red balloon
TTITLE3=Mopper's blues
TTITLE4=Why does it go on
TTITLE5=Shake
TTITLE6=Don't you tell nobody
TTITLE7=Just like I treat you
TTITLE8=The day will come
TTITLE9=So much to say
TTITLE10=Come on baby
TTITLE11=Can I get a witness
TTITLE12=Baby take me
TTITLE13=I got my mojo working
TTITLE14=How blue can you get
TTITLE15=Come on baby
TTITLE16=Good morning little school girl
TTITLE17=Stone crazy
EXTD=
EXTT0=
EXTT1=
EXTT2=
EXTT3=
EXTT4=
EXTT5=
EXTT6=
EXTT7=
EXTT8=
EXTT9=
EXTT10=
EXTT11=
EXTT12=
EXTT13=
EXTT14=
EXTT15=
EXTT16=
EXTT17=
PLAYORDER=
